<svg xmlns="http://www.w3.org/2000/svg" width="256" height="256" viewBox="0 0 32 32" role="img" aria-labelledby="pixelPortraitTitle pixelPortraitDesc" shape-rendering="crispEdges" color="#000">
  <title id="pixelPortraitTitle">Pixel portrait</title>
  <desc id="pixelPortraitDesc">A monochrome pixel portrait with pulled-back hair, beard, and smile.</desc>
  <g fill="currentColor">
    <rect x="12" y="1" width="7" height="1" />
    <rect x="10" y="2" width="11" height="1" />
    <rect x="9" y="3" width="13" height="1" />
    <rect x="8" y="4" width="15" height="1" />
    <rect x="7" y="5" width="6" height="1" />
    <rect x="18" y="5" width="6" height="1" />
    <rect x="6" y="6" width="5" height="1" />
    <rect x="20" y="6" width="5" height="1" />
    <rect x="5" y="7" width="5" height="1" />
    <rect x="21" y="7" width="5" height="1" />
    <rect x="5" y="8" width="4" height="1" />
    <rect x="22" y="8" width="5" height="1" />
    <rect x="4" y="9" width="4" height="1" />
    <rect x="23" y="9" width="4" height="1" />
    <rect x="4" y="10" width="3" height="1" />
    <rect x="24" y="10" width="4" height="1" />
    <rect x="3" y="11" width="4" height="1" />
    <rect x="9" y="11" width="2" height="1" />
    <rect x="18" y="11" width="2" height="1" />
    <rect x="23" y="11" width="4" height="1" />
    <rect x="3" y="12" width="3" height="1" />
    <rect x="9" y="12" width="2" height="1" />
    <rect x="18" y="12" width="2" height="1" />
    <rect x="24" y="12" width="3" height="1" />
    <rect x="3" y="13" width="3" height="1" />
    <rect x="24" y="13" width="3" height="1" />
    <rect x="3" y="14" width="3" height="1" />
    <rect x="16" y="14" width="1" height="1" />
    <rect x="24" y="14" width="3" height="1" />
    <rect x="4" y="15" width="3" height="1" />
    <rect x="16" y="15" width="1" height="1" />
    <rect x="23" y="15" width="3" height="1" />
    <rect x="4" y="16" width="4" height="1" />
    <rect x="11" y="16" width="2" height="1" />
    <rect x="18" y="16" width="2" height="1" />
    <rect x="23" y="16" width="4" height="1" />
    <rect x="5" y="17" width="3" height="1" />
    <rect x="10" y="17" width="1" height="1" />
    <rect x="18" y="17" width="1" height="1" />
    <rect x="21" y="17" width="3" height="1" />
    <rect x="5" y="18" width="4" height="1" />
    <rect x="11" y="18" width="3" height="1" />
    <rect x="15" y="18" width="3" height="1" />
    <rect x="20" y="18" width="4" height="1" />
    <rect x="6" y="19" width="5" height="1" />
    <rect x="18" y="19" width="5" height="1" />
    <rect x="6" y="20" width="6" height="1" />
    <rect x="17" y="20" width="6" height="1" />
    <rect x="7" y="21" width="15" height="1" />
    <rect x="8" y="22" width="13" height="1" />
    <rect x="9" y="23" width="11" height="1" />
    <rect x="10" y="24" width="9" height="1" />
    <rect x="11" y="25" width="7" height="1" />
    <rect x="12" y="26" width="5" height="1" />
    <rect x="13" y="27" width="3" height="1" />
  </g>
</svg>
